-
 
http://www.Speed. Cd       the fast  and The Hottest Private Tracker on the net 
http://www.Speed. Cd

Please Seed back to make the speed Faster!!
 ............ NFO .............
-
 
http://www.Speed. Cd(  ___  )|     /|(  ____ (  __   
| (   ) |(    / )| (    /| (    )
| (___) |  (_) / | (__    | |   ) |
|  ___  |  ) _ (  |  __)   | |   | |
| (   ) | / ( )  | (      | |   ) |
| )   ( |( /    )| (____/| (__/  )
|/     ||/     |(_______/(______/ 
  _    _    _    _    _    _    _    _  
 /   /   /   /   /   /   /   /  
( p )( r )( e )( s )( e )( n )( t )( s )
 _/  _/  _/  _/  _/  _/  _/  _/
 
It's.In.The.Blood.2012.DVDRiP.AC3-5.1.XviD-AXED

POSTER: 
[IMG]http://img19.imageshack.us/img19/4659/itsintheblooddvd.jpg[/IMG]

IMDB:  
http://www.imdb.com/title/tt2072134/

PLOT INFO:
When a father and son become stranded in the wild, they must confront the horrors of their past to escape with their lives. 

Media Info:

General
Complete name                    : It's.In.The.Blood.2012.DVDRiP.AC3-5.1.XviD-AXED.avi
Format                           : AVI
Format/Info                      : Audio Video Interleave
File size                        : 1.37 GiB
Duration                         : 1h 20mn
Overall bit rate                 : 2 452 Kbps

Video
ID                               : 0
Format                           : MPEG-4 Visual
Format profile                   : Advanced Simple@L5
Format settings, BVOP            : 1
Format settings, QPel            : No
Format settings, GMC             : No warppoints
Format settings, Matrix          : Default (H.263)
Codec ID                         : XVID
Codec ID/Hint                    : XviD
Duration                         : 1h 20mn
Bit rate                         : 2 124 Kbps
Width                            : 720 pixels
Height                           : 400 pixels
Display aspect ratio             : 16:9
Frame rate                       : 23.976 fps
Color space                      : YUV
Chroma subsampling               : 4:2:0
Bit depth                        : 8 bits
Scan type                        : Progressive
Compression mode                 : Lossy
Bits/(Pixel*Frame)               : 0.308
Stream size                      : 1.19 GiB (87%)
Writing library                  : XviD 1.2.1 (UTC 2008-12-04)

Audio
ID                               : 1
Format                           : AC-3
Format/Info                      : Audio Coding 3
Mode extension                   : CM (complete main)
Codec ID                         : 2000
Duration                         : 1h 20mn
Bit rate mode                    : Constant
Bit rate                         : 320 Kbps
Channel(s)                       : 5 channels
Channel positions                : Front: L C R, Side: L R
Sampling rate                    : 48.0 KHz
Bit depth                        : 16 bits
Compression mode                 : Lossy
Stream size                      : 183 MiB (13%)
Alignment                        : Aligned on interleaves
Interleave, duration             : 64 ms (1.53 video frames)
Interleave, preload duration     : 192 ms
Title                            : VTS_02_1 T80 3_2ch 320Kbps DELAY 0ms



SOURCE: 
Retail DVD

NOTES: 
This little indie horror flick with Lance Henriksen was just released. I haven't seen it, but I've heard good things. For some reason the audio reads as 5 channel instead of 6, but the audio used on this release is a direct copy from the DVD, not touched in any way, so unfortunately it seems to be an issue with the source.

AXED! We do this better.

SCREENS:
[IMG]http://imageshack.us/a/img824/7122/73209442.png[/IMG]
[IMG]http://imageshack.us/a/img21/7186/81431996.png[/IMG]
[IMG]http://imageshack.us/a/img21/323/40672657.png[/IMG]
[IMG]http://imageshack.us/a/img27/4694/31770667.png[/IMG]
[IMG]http://imageshack.us/a/img39/4015/47106298.png[/IMG]
